<svg width="325" height="77" viewBox="0 0 325 77" fill="none" xmlns="http://www.w3.org/2000/svg">
<rect y="59.2" width="11.2" height="11.2" fill="#2563EB"/>
<rect opacity="0.6" x="11.2" y="59.2" width="11.2" height="11.2" fill="#2563EB"/>
<rect opacity="0.32" x="22.4" y="59.2" width="11.2" height="11.2" fill="#2563EB"/>
<rect opacity="0.07" x="33.6" y="59.2" width="11.2" height="11.2" fill="#2563EB"/>
<rect opacity="0.6" y="48" width="11.2" height="11.2" fill="#2563EB"/>
<rect opacity="0.32" x="11.2" y="48" width="11.2" height="11.2" fill="#2563EB"/>
<rect opacity="0.07" x="11.2" y="36.8" width="11.2" height="11.2" fill="#2563EB"/>
<rect opacity="0.07" x="22.4" y="48" width="11.2" height="11.2" fill="#2563EB"/>
<rect opacity="0.32" y="36.8" width="11.2" height="11.2" fill="#2563EB"/>
<rect opacity="0.07" y="25.5999" width="11.2" height="11.2" fill="#2563EB"/>
<rect x="52.8" y="6.39999" width="11.2" height="11.2" fill="#2563EB"/>
<rect opacity="0.6" x="52.8" y="17.5999" width="11.2" height="11.2" fill="#2563EB"/>
<rect opacity="0.32" x="41.6" y="17.5999" width="11.2" height="11.2" fill="#2563EB"/>
<rect opacity="0.07" x="30.4" y="17.5999" width="11.2" height="11.2" fill="#2563EB"/>
<rect opacity="0.32" x="52.8" y="28.8" width="11.2" height="11.2" fill="#2563EB"/>
<rect opacity="0.07" x="41.6" y="28.8" width="11.2" height="11.2" fill="#2563EB"/>
<rect opacity="0.07" x="52.8" y="40" width="11.2" height="11.2" fill="#2563EB"/>
<rect opacity="0.6" x="41.6" y="6.39999" width="11.2" height="11.2" fill="#2563EB"/>
<rect opacity="0.32" x="30.4" y="6.39999" width="11.2" height="11.2" fill="#2563EB"/>
<rect opacity="0.07" x="19.2" y="6.39999" width="11.2" height="11.2" fill="#2563EB"/>
<path d="M140.544 17.704L123.84 63.4H112.64L96.064 17.704H106.304L118.208 53.224H118.464L130.368 17.704H140.544ZM161.292 52.648L170.38 53.352C169.036 58.152 164.556 64.232 153.804 64.232C143.436 64.232 136.844 57.32 136.844 46.568C136.844 35.688 143.244 28.776 153.804 28.776C164.428 28.776 171.532 35.752 170.7 48.424H145.996C146.124 53.992 149.132 57.896 153.804 57.896C158.732 57.896 160.588 54.824 161.292 52.648ZM153.804 34.984C149.068 34.984 146.444 38.44 146.124 42.6H161.548C161.228 38.44 158.604 34.984 153.804 34.984ZM190.492 57.512C195.356 57.512 197.212 53.928 197.916 50.92L207.004 52.008C205.596 57.64 201.116 64.232 190.492 64.232C179.996 64.232 173.532 57.384 173.532 46.504C173.532 35.624 179.996 28.776 190.492 28.776C201.116 28.776 205.212 35.368 206.492 39.464L197.788 41.384C197.02 38.952 195.164 35.496 190.492 35.496C185.756 35.496 182.684 39.208 182.684 46.504C182.684 53.8 185.756 57.512 190.492 57.512ZM226.44 56.488C227.336 56.488 228.488 56.488 229.256 56.424V63.4C228.424 63.528 225.608 63.528 223.432 63.528C216.52 63.528 213.512 62.056 213.512 55.4V35.56H208.136V29.544H213.512V20.072H222.472V29.544H229.512V35.56H222.472V53.096C222.472 56.168 223.624 56.488 226.44 56.488ZM255.59 58.92H255.334C253.03 62.184 249.446 64.232 244.582 64.232C238.118 64.232 232.678 60.456 232.678 51.88V29.544H241.638V49.576C241.638 55.016 243.878 57 247.974 57C251.686 57 255.206 54.056 255.206 47.976V29.544H264.102V63.4H255.59V58.92ZM277.004 29.544V34.728H277.26C279.052 31.272 282.444 28.776 287.436 28.776C288.268 28.776 289.164 28.84 289.804 29.032V37.416C288.972 37.288 287.628 37.16 286.284 37.16C281.164 37.16 277.388 39.4 277.388 46.312V63.4H268.428V29.544H277.004ZM322.91 63.4H314.078C313.502 62.76 313.054 61.032 313.054 58.728C311.134 62.376 306.462 64.232 301.854 64.232C295.966 64.232 290.59 60.456 290.59 54.184C290.59 46.888 295.774 44.2 304.67 43.112C311.326 42.344 313.054 41.32 313.054 39.336C313.054 36.776 311.198 35.176 307.102 35.176C304.03 35.176 301.214 36.776 300.19 40.168L291.87 38.952C293.406 32.552 299.358 28.776 307.358 28.776C317.598 28.776 322.014 33.256 322.014 39.72V56.616C322.014 60.136 322.078 62.056 322.91 63.4ZM313.054 50.28V46.76C311.966 47.656 308.958 48.104 305.694 48.552C302.43 49.064 299.742 50.6 299.742 53.736C299.742 56.488 301.598 58.024 304.606 58.024C308.253 58.024 313.054 55.848 313.054 50.28Z" fill="#2563EB"/>
</svg>
